<mxfile host="drawio-plugin" modified="2023-03-05T16:27:39.846Z" agent="5.0 (Macintosh; Intel Mac OS X 10_15_7) AppleWebKit/537.36 (KHTML, like Gecko) Chrome/104.0.5112.102 Safari/537.36" version="20.5.3" etag="idHUXtdVCAy4o8qzQCc_" type="embed"><diagram id="ZLfJR2GAbc3K3KCeNYMS" name="Page-1"><mxGraphModel dx="892" dy="798" grid="1" gridSize="10" guides="1" tooltips="1" connect="1" arrows="1" fold="1" page="1" pageScale="1" pageWidth="850" pageHeight="1100" math="0" shadow="0"><root><mxCell id="0"/><mxCell id="1" parent="0"/><mxCell id="2" style="edgeStyle=orthogonalEdgeStyle;rounded=0;orthogonalLoop=1;jettySize=auto;html=1;entryX=0.5;entryY=0;entryDx=0;entryDy=0;" edge="1" parent="1" source="3" target="8"><mxGeometry relative="1" as="geometry"/></mxCell><mxCell id="3" value="" style="rounded=0;whiteSpace=wrap;html=1;fillColor=none;dashed=1;" vertex="1" parent="1"><mxGeometry x="200" y="80" width="480" height="80" as="geometry"/></mxCell><mxCell id="4" value="APP" style="rounded=0;whiteSpace=wrap;html=1;fillColor=default;" vertex="1" parent="1"><mxGeometry x="220" y="90" width="120" height="60" as="geometry"/></mxCell><mxCell id="5" value="WEB" style="rounded=0;whiteSpace=wrap;html=1;fillColor=default;" vertex="1" parent="1"><mxGeometry x="370" y="90" width="120" height="60" as="geometry"/></mxCell><mxCell id="6" value="管理后台" style="rounded=0;whiteSpace=wrap;html=1;fillColor=default;" vertex="1" parent="1"><mxGeometry x="520" y="90" width="120" height="60" as="geometry"/></mxCell><mxCell id="7" value="展示层" style="text;html=1;align=center;verticalAlign=middle;resizable=0;points=[];autosize=1;strokeColor=none;fillColor=none;" vertex="1" parent="1"><mxGeometry x="90" y="105" width="60" height="30" as="geometry"/></mxCell><mxCell id="8" value="" style="rounded=0;whiteSpace=wrap;html=1;fillColor=none;dashed=1;" vertex="1" parent="1"><mxGeometry x="200" y="200" width="480" height="80" as="geometry"/></mxCell><mxCell id="9" value="CDN" style="rounded=0;whiteSpace=wrap;html=1;fillColor=default;" vertex="1" parent="1"><mxGeometry x="220" y="210" width="120" height="60" as="geometry"/></mxCell><mxCell id="10" value="ELB" style="rounded=0;whiteSpace=wrap;html=1;fillColor=default;" vertex="1" parent="1"><mxGeometry x="370" y="210" width="120" height="60" as="geometry"/></mxCell><mxCell id="11" value="nginx" style="rounded=0;whiteSpace=wrap;html=1;fillColor=default;" vertex="1" parent="1"><mxGeometry x="520" y="210" width="120" height="60" as="geometry"/></mxCell><mxCell id="12" value="接入层" style="text;html=1;align=center;verticalAlign=middle;resizable=0;points=[];autosize=1;strokeColor=none;fillColor=none;" vertex="1" parent="1"><mxGeometry x="90" y="225" width="60" height="30" as="geometry"/></mxCell><mxCell id="13" style="edgeStyle=orthogonalEdgeStyle;rounded=0;orthogonalLoop=1;jettySize=auto;html=1;" edge="1" parent="1" source="14" target="21"><mxGeometry relative="1" as="geometry"/></mxCell><mxCell id="14" value="" style="rounded=0;whiteSpace=wrap;html=1;fillColor=none;dashed=1;" vertex="1" parent="1"><mxGeometry x="200" y="320" width="480" height="80" as="geometry"/></mxCell><mxCell id="15" value="鉴权，黑白名单" style="rounded=0;whiteSpace=wrap;html=1;fillColor=default;" vertex="1" parent="1"><mxGeometry x="220" y="330" width="120" height="60" as="geometry"/></mxCell><mxCell id="16" value="限流" style="rounded=0;whiteSpace=wrap;html=1;fillColor=default;" vertex="1" parent="1"><mxGeometry x="370" y="330" width="120" height="60" as="geometry"/></mxCell><mxCell id="17" value="负载均衡" style="rounded=0;whiteSpace=wrap;html=1;fillColor=default;" vertex="1" parent="1"><mxGeometry x="520" y="330" width="120" height="60" as="geometry"/></mxCell><mxCell id="18" value="网关层" style="text;html=1;align=center;verticalAlign=middle;resizable=0;points=[];autosize=1;strokeColor=none;fillColor=none;" vertex="1" parent="1"><mxGeometry x="90" y="335" width="60" height="30" as="geometry"/></mxCell><mxCell id="19" style="edgeStyle=orthogonalEdgeStyle;rounded=0;orthogonalLoop=1;jettySize=auto;html=1;entryX=0.5;entryY=0;entryDx=0;entryDy=0;" edge="1" parent="1" source="21" target="39"><mxGeometry relative="1" as="geometry"/></mxCell><mxCell id="20" style="edgeStyle=orthogonalEdgeStyle;rounded=0;orthogonalLoop=1;jettySize=auto;html=1;entryX=-0.003;entryY=0.465;entryDx=0;entryDy=0;entryPerimeter=0;" edge="1" parent="1" source="21" target="30"><mxGeometry relative="1" as="geometry"/></mxCell><mxCell id="21" value="" style="rounded=0;whiteSpace=wrap;html=1;fillColor=none;dashed=1;" vertex="1" parent="1"><mxGeometry x="200" y="430" width="480" height="240" as="geometry"/></mxCell><mxCell id="22" value="服务A" style="rounded=0;whiteSpace=wrap;html=1;fillColor=default;" vertex="1" parent="1"><mxGeometry x="230" y="465" width="120" height="60" as="geometry"/></mxCell><mxCell id="23" value="&lt;span style=&quot;color: rgb(0, 0, 0); font-family: Helvetica; font-size: 12px; font-style: normal; font-variant-ligatures: normal; font-variant-caps: normal; font-weight: 400; letter-spacing: normal; orphans: 2; text-align: center; text-indent: 0px; text-transform: none; widows: 2; word-spacing: 0px; -webkit-text-stroke-width: 0px; background-color: rgb(248, 249, 250); text-decoration-thickness: initial; text-decoration-style: initial; text-decoration-color: initial; float: none; display: inline !important;&quot;&gt;服务B&lt;/span&gt;" style="rounded=0;whiteSpace=wrap;html=1;fillColor=default;" vertex="1" parent="1"><mxGeometry x="370" y="465" width="120" height="60" as="geometry"/></mxCell><mxCell id="24" value="&lt;span style=&quot;color: rgb(0, 0, 0); font-family: Helvetica; font-size: 12px; font-style: normal; font-variant-ligatures: normal; font-variant-caps: normal; font-weight: 400; letter-spacing: normal; orphans: 2; text-align: center; text-indent: 0px; text-transform: none; widows: 2; word-spacing: 0px; -webkit-text-stroke-width: 0px; background-color: rgb(248, 249, 250); text-decoration-thickness: initial; text-decoration-style: initial; text-decoration-color: initial; float: none; display: inline !important;&quot;&gt;服务C&lt;/span&gt;" style="rounded=0;whiteSpace=wrap;html=1;fillColor=default;" vertex="1" parent="1"><mxGeometry x="510" y="465" width="120" height="60" as="geometry"/></mxCell><mxCell id="25" value="服务层" style="text;html=1;align=center;verticalAlign=middle;resizable=0;points=[];autosize=1;strokeColor=none;fillColor=none;" vertex="1" parent="1"><mxGeometry x="90" y="545" width="60" height="30" as="geometry"/></mxCell><mxCell id="26" value="&lt;span style=&quot;color: rgb(0, 0, 0); font-family: Helvetica; font-size: 12px; font-style: normal; font-variant-ligatures: normal; font-variant-caps: normal; font-weight: 400; letter-spacing: normal; orphans: 2; text-align: center; text-indent: 0px; text-transform: none; widows: 2; word-spacing: 0px; -webkit-text-stroke-width: 0px; background-color: rgb(248, 249, 250); text-decoration-thickness: initial; text-decoration-style: initial; text-decoration-color: initial; float: none; display: inline !important;&quot;&gt;服务D&lt;/span&gt;" style="rounded=0;whiteSpace=wrap;html=1;fillColor=default;" vertex="1" parent="1"><mxGeometry x="230" y="570" width="120" height="60" as="geometry"/></mxCell><mxCell id="27" value="&lt;span style=&quot;color: rgb(0, 0, 0); font-family: Helvetica; font-size: 12px; font-style: normal; font-variant-ligatures: normal; font-variant-caps: normal; font-weight: 400; letter-spacing: normal; orphans: 2; text-align: center; text-indent: 0px; text-transform: none; widows: 2; word-spacing: 0px; -webkit-text-stroke-width: 0px; background-color: rgb(248, 249, 250); text-decoration-thickness: initial; text-decoration-style: initial; text-decoration-color: initial; float: none; display: inline !important;&quot;&gt;服务E&lt;/span&gt;" style="rounded=0;whiteSpace=wrap;html=1;fillColor=default;" vertex="1" parent="1"><mxGeometry x="370" y="570" width="120" height="60" as="geometry"/></mxCell><mxCell id="28" value="&lt;span style=&quot;color: rgb(0, 0, 0); font-family: Helvetica; font-size: 12px; font-style: normal; font-variant-ligatures: normal; font-variant-caps: normal; font-weight: 400; letter-spacing: normal; orphans: 2; text-align: center; text-indent: 0px; text-transform: none; widows: 2; word-spacing: 0px; -webkit-text-stroke-width: 0px; background-color: rgb(248, 249, 250); text-decoration-thickness: initial; text-decoration-style: initial; text-decoration-color: initial; float: none; display: inline !important;&quot;&gt;服务F&lt;/span&gt;" style="rounded=0;whiteSpace=wrap;html=1;fillColor=default;" vertex="1" parent="1"><mxGeometry x="510" y="570" width="120" height="60" as="geometry"/></mxCell><mxCell id="29" style="edgeStyle=orthogonalEdgeStyle;rounded=0;orthogonalLoop=1;jettySize=auto;html=1;entryX=0;entryY=0.5;entryDx=0;entryDy=0;" edge="1" parent="1" source="30" target="35"><mxGeometry relative="1" as="geometry"/></mxCell><mxCell id="30" value="" style="rounded=0;whiteSpace=wrap;html=1;fillColor=none;dashed=1;" vertex="1" parent="1"><mxGeometry x="730" y="410" width="310" height="300" as="geometry"/></mxCell><mxCell id="31" value="服务治理" style="text;html=1;align=center;verticalAlign=middle;resizable=0;points=[];autosize=1;strokeColor=none;fillColor=none;" vertex="1" parent="1"><mxGeometry x="840" y="365" width="70" height="30" as="geometry"/></mxCell><mxCell id="32" value="服务发现" style="rounded=0;whiteSpace=wrap;html=1;fillColor=default;" vertex="1" parent="1"><mxGeometry x="760" y="440" width="120" height="60" as="geometry"/></mxCell><mxCell id="33" value="服务降级" style="rounded=0;whiteSpace=wrap;html=1;fillColor=default;" vertex="1" parent="1"><mxGeometry x="825" y="525" width="120" height="60" as="geometry"/></mxCell><mxCell id="34" value="服务熔断" style="rounded=0;whiteSpace=wrap;html=1;fillColor=default;" vertex="1" parent="1"><mxGeometry x="910" y="620" width="120" height="60" as="geometry"/></mxCell><mxCell id="35" value="" style="rounded=0;whiteSpace=wrap;html=1;fillColor=none;dashed=1;" vertex="1" parent="1"><mxGeometry x="1149" y="480" width="170" height="160" as="geometry"/></mxCell><mxCell id="36" value="外部系统" style="rounded=0;whiteSpace=wrap;html=1;fillColor=default;" vertex="1" parent="1"><mxGeometry x="1173" y="525" width="120" height="60" as="geometry"/></mxCell><mxCell id="37" value="外部服务" style="text;html=1;align=center;verticalAlign=middle;resizable=0;points=[];autosize=1;strokeColor=none;fillColor=none;" vertex="1" parent="1"><mxGeometry x="1199" y="430" width="70" height="30" as="geometry"/></mxCell><mxCell id="38" style="edgeStyle=orthogonalEdgeStyle;rounded=0;orthogonalLoop=1;jettySize=auto;html=1;entryX=0.5;entryY=0;entryDx=0;entryDy=0;" edge="1" parent="1" source="39" target="45"><mxGeometry relative="1" as="geometry"/></mxCell><mxCell id="39" value="" style="rounded=0;whiteSpace=wrap;html=1;fillColor=none;dashed=1;" vertex="1" parent="1"><mxGeometry x="200" y="730" width="480" height="240" as="geometry"/></mxCell><mxCell id="40" value="底层能力" style="text;html=1;align=center;verticalAlign=middle;resizable=0;points=[];autosize=1;strokeColor=none;fillColor=none;" vertex="1" parent="1"><mxGeometry x="80" y="830" width="70" height="30" as="geometry"/></mxCell><mxCell id="41" value="调度中心" style="rounded=0;whiteSpace=wrap;html=1;fillColor=default;" vertex="1" parent="1"><mxGeometry x="240" y="770" width="120" height="60" as="geometry"/></mxCell><mxCell id="42" value="配置中心" style="rounded=0;whiteSpace=wrap;html=1;fillColor=default;" vertex="1" parent="1"><mxGeometry x="240" y="880" width="120" height="60" as="geometry"/></mxCell><mxCell id="43" value="APM" style="rounded=0;whiteSpace=wrap;html=1;fillColor=default;" vertex="1" parent="1"><mxGeometry x="530" y="880" width="120" height="60" as="geometry"/></mxCell><mxCell id="44" value="日志平台" style="rounded=0;whiteSpace=wrap;html=1;fillColor=default;" vertex="1" parent="1"><mxGeometry x="540" y="770" width="120" height="60" as="geometry"/></mxCell><mxCell id="45" value="" style="rounded=0;whiteSpace=wrap;html=1;fillColor=none;dashed=1;" vertex="1" parent="1"><mxGeometry x="200" y="1040" width="480" height="130" as="geometry"/></mxCell><mxCell id="46" value="MySQL" style="rounded=0;whiteSpace=wrap;html=1;fillColor=default;" vertex="1" parent="1"><mxGeometry x="240" y="1075" width="120" height="60" as="geometry"/></mxCell><mxCell id="47" value="Redis" style="rounded=0;whiteSpace=wrap;html=1;fillColor=default;" vertex="1" parent="1"><mxGeometry x="490" y="1075" width="120" height="60" as="geometry"/></mxCell><mxCell id="48" value="MQ" style="rounded=0;whiteSpace=wrap;html=1;fillColor=default;" vertex="1" parent="1"><mxGeometry x="390" y="830" width="120" height="60" as="geometry"/></mxCell><mxCell id="49" value="数据层" style="text;html=1;align=center;verticalAlign=middle;resizable=0;points=[];autosize=1;strokeColor=none;fillColor=none;" vertex="1" parent="1"><mxGeometry x="90" y="1090" width="60" height="30" as="geometry"/></mxCell><mxCell id="50" value="" style="rounded=0;whiteSpace=wrap;html=1;fillColor=none;dashed=1;" vertex="1" parent="1"><mxGeometry x="780" y="945" width="480" height="130" as="geometry"/></mxCell><mxCell id="51" value="gitlab" style="rounded=0;whiteSpace=wrap;html=1;fillColor=default;" vertex="1" parent="1"><mxGeometry x="820" y="980" width="120" height="60" as="geometry"/></mxCell><mxCell id="52" value="jenkins" style="rounded=0;whiteSpace=wrap;html=1;fillColor=default;" vertex="1" parent="1"><mxGeometry x="960" y="980" width="120" height="60" as="geometry"/></mxCell><mxCell id="53" value="devOps层" style="text;html=1;align=center;verticalAlign=middle;resizable=0;points=[];autosize=1;strokeColor=none;fillColor=none;" vertex="1" parent="1"><mxGeometry x="840" y="895" width="80" height="30" as="geometry"/></mxCell><mxCell id="54" value="CI/CD、k8s" style="rounded=0;whiteSpace=wrap;html=1;fillColor=default;" vertex="1" parent="1"><mxGeometry x="1108" y="980" width="120" height="60" as="geometry"/></mxCell></root></mxGraphModel></diagram></mxfile>